<svg width="32" height="32" viewBox="0 0 32 32" fill="none" xmlns="http://www.w3.org/2000/svg">
<path d="M10.9397 10.0264C11.0286 10.1076 11.1339 10.172 11.2498 10.2157C11.3657 10.2594 11.4898 10.2816 11.615 10.281C11.7396 10.2817 11.863 10.2595 11.9782 10.2158C12.0934 10.1721 12.1979 10.1077 12.2858 10.0264C12.3762 9.94475 12.4481 9.84733 12.4971 9.73982C12.5462 9.63231 12.5714 9.51685 12.5714 9.40023C12.5714 9.28361 12.5462 9.16818 12.4971 9.06067C12.4481 8.95316 12.3762 8.85572 12.2858 8.7741L9.24922 5.9774C9.1606 5.8941 9.05484 5.8279 8.9381 5.78273C8.82137 5.73755 8.69602 5.71429 8.56939 5.71429C8.44277 5.71429 8.31745 5.73755 8.20071 5.78273C8.08398 5.8279 7.97819 5.8941 7.88957 5.9774L4.85304 8.7741C4.67274 8.94016 4.57144 9.16539 4.57144 9.40023C4.57144 9.63508 4.67274 9.8603 4.85304 10.0264C5.03334 10.1924 5.27788 10.2857 5.53287 10.2857C5.78785 10.2857 6.03239 10.1924 6.21269 10.0264L8.57847 7.84744L10.9397 10.0264Z" fill="white"/>
<path d="M21.0517 10.0228L23.4175 7.84569L25.7832 10.0228C25.8719 10.1061 25.9776 10.1722 26.0944 10.2173C26.2111 10.2625 26.3364 10.2857 26.4631 10.2857C26.5897 10.2857 26.715 10.2625 26.8318 10.2173C26.9485 10.1722 27.0543 10.1061 27.1429 10.0228C27.2333 9.94128 27.3052 9.84395 27.3543 9.73652C27.4033 9.6291 27.4286 9.51374 27.4286 9.39721C27.4286 9.28069 27.4033 9.16536 27.3543 9.05793C27.3052 8.9505 27.2333 8.85315 27.1429 8.7716L24.1063 5.97718C24.0177 5.89395 23.912 5.82781 23.7952 5.78267C23.6785 5.73753 23.5531 5.71429 23.4265 5.71429C23.2999 5.71429 23.1746 5.73753 23.0578 5.78267C22.9411 5.82781 22.8353 5.89395 22.7467 5.97718L19.7102 8.7716C19.5299 8.93752 19.4286 9.16256 19.4286 9.39721C19.4286 9.63187 19.5299 9.85691 19.7102 10.0228C19.8905 10.1888 20.135 10.282 20.39 10.282C20.645 10.282 20.8895 10.1888 21.0698 10.0228H21.0517Z" fill="white"/>
<path d="M13.3041 21.9736C13.0981 21.8076 12.8186 21.7143 12.5272 21.7143C12.2358 21.7143 11.9564 21.8076 11.7503 21.9736C11.5443 22.1395 11.4286 22.3647 11.4286 22.5994C11.4286 22.8342 11.5443 23.0593 11.7503 23.2253L15.2257 26.0209C15.3266 26.1047 15.4473 26.1713 15.5808 26.2168C15.7142 26.2623 15.8577 26.2857 16.0026 26.2857C16.1475 26.2857 16.2909 26.2623 16.4244 26.2168C16.5578 26.1713 16.6786 26.1047 16.7795 26.0209L20.2496 23.2253C20.4557 23.0593 20.5714 22.8342 20.5714 22.5994C20.5714 22.3647 20.4557 22.1395 20.2496 21.9736C20.0436 21.8076 19.7641 21.7143 19.4727 21.7143C19.1813 21.7143 18.9019 21.8076 18.6958 21.9736L16.0077 24.1349L13.3041 21.9736Z" fill="white"/>
</svg>
